<?xml version="1.0" standalone="no"?>
<!DOCTYPE svg PUBLIC "-//W3C//DTD SVG 20010904//EN"
 "http://www.w3.org/TR/2001/REC-SVG-20010904/DTD/svg10.dtd">
<svg version="1.0" xmlns="http://www.w3.org/2000/svg"
 width="578.000000pt" height="578.000000pt" viewBox="0 0 578.000000 578.000000"
 preserveAspectRatio="xMidYMid meet">
<metadata>
Created by potrace 1.14, written by Peter Selinger 2001-2017
</metadata>
<g transform="translate(0.000000,578.000000) scale(0.100000,-0.100000)"
fill="#000000" stroke="none">
<path d="M2925 4816 c-113 -76 -288 -313 -326 -439 -18 -60 -39 -192 -39 -248
0 -31 -3 -90 -6 -132 -9 -100 -23 -90 -65 44 -38 123 -55 130 -87 37 -34 -99
-43 -156 -43 -264 0 -84 4 -112 26 -170 63 -170 191 -278 353 -300 80 -10 90
-2 53 45 -55 70 -81 138 -81 217 0 63 4 79 41 150 23 43 50 88 59 99 23 26 43
100 34 128 -18 62 119 -138 154 -223 56 -139 51 -222 -21 -343 -33 -56 -38
-70 -26 -78 29 -19 167 18 232 63 42 28 147 143 147 161 0 7 16 45 35 86 31
65 35 81 35 155 0 116 -16 185 -64 268 -49 87 -79 103 -70 36 10 -72 -29 -228
-57 -228 -5 0 -9 37 -9 83 -1 104 -20 152 -124 311 -43 65 -89 144 -101 175
-46 112 -42 238 10 343 35 69 17 77 -60 24z"/>
<path d="M1751 3113 c1 -115 4 -237 8 -273 l6 -64 75 -32 c134 -56 353 -164
420 -207 121 -77 285 -205 343 -267 68 -72 94 -76 89 -15 -7 101 -41 192 -132
350 -114 198 -230 338 -385 465 -127 103 -368 250 -412 250 -10 0 -13 -48 -12
-207z"/>
<path d="M3935 3289 c-187 -96 -307 -183 -446 -326 -210 -215 -390 -521 -393
-668 -2 -89 17 -86 122 22 158 161 392 307 655 408 147 56 138 42 149 241 11
187 3 354 -15 354 -7 0 -39 -14 -72 -31z"/>
<path d="M2573 3173 c-42 -8 -43 -111 0 -150 12 -12 48 -28 79 -37 57 -16 91
-46 113 -101 5 -11 12 -150 16 -310 4 -172 12 -305 18 -328 14 -44 63 -103 88
-105 39 -4 65 -2 84 8 18 10 19 24 19 339 0 372 5 407 65 460 19 16 52 33 72
37 53 9 70 20 88 54 20 39 19 83 -2 108 -17 19 -33 20 -318 24 -165 2 -310 3
-322 1z"/>
<path d="M1366 2983 c-3 -15 -10 -73 -16 -128 -19 -163 -73 -469 -164 -919
-57 -282 -57 -283 -11 -292 19 -3 164 -4 322 0 158 3 451 3 650 -1 l362 -6 35
-57 c47 -76 113 -135 194 -173 57 -27 79 -32 142 -32 124 0 220 53 295 161 18
27 44 62 57 77 l24 29 669 1 c369 1 676 6 683 10 19 13 14 84 -13 175 -13 46
-29 120 -35 165 -6 45 -29 172 -50 282 -84 430 -109 563 -120 642 l-12 82 -97
3 c-53 2 -100 0 -106 -4 -6 -5 -4 -29 3 -66 46 -210 92 -477 99 -573 6 -78 5
-79 -117 -79 -249 0 -710 -143 -885 -275 -16 -12 -44 -29 -60 -38 -29 -14 -64
-61 -54 -71 2 -3 47 8 100 24 326 97 655 127 957 87 137 -18 184 -38 218 -91
18 -28 18 -34 6 -45 -12 -11 -27 -11 -90 3 -105 23 -334 46 -469 46 -145 0
-228 -12 -453 -67 -102 -24 -225 -50 -275 -57 l-90 -12 -12 -58 c-6 -33 -20
-70 -30 -84 -47 -62 -153 -82 -218 -39 -43 27 -80 97 -72 136 l6 28 -107 26
c-59 14 -132 31 -162 37 -30 7 -93 23 -140 36 -267 75 -654 72 -919 -7 -38
-11 -68 -16 -73 -11 -13 13 2 82 22 102 26 26 175 57 341 70 250 21 441 -3
837 -102 46 -11 85 -18 88 -16 14 15 -19 43 -124 106 -154 91 -156 92 -317
152 -226 84 -408 120 -601 120 l-117 0 6 75 c4 41 11 94 17 118 5 23 21 96 36
162 14 66 35 161 46 210 11 50 22 102 25 116 l5 27 -99 7 c-54 4 -105 9 -115
11 -11 3 -18 -3 -22 -23z"/>
<path d="M1636 2688 c-11 -32 -27 -281 -19 -288 4 -4 64 -15 133 -24 69 -8
170 -27 224 -41 207 -54 470 -173 639 -287 32 -22 61 -38 64 -35 12 12 -35 74
-129 169 -79 80 -137 127 -248 200 -198 131 -288 177 -480 249 -91 33 -168 63
-173 66 -4 2 -9 -2 -11 -9z"/>
<path d="M4070 2669 c-30 -11 -95 -34 -145 -50 -49 -16 -101 -38 -115 -48 -14
-10 -37 -22 -50 -26 -32 -10 -128 -64 -136 -76 -3 -5 -14 -9 -24 -9 -11 0 -34
-13 -52 -28 -18 -16 -53 -40 -78 -54 -25 -15 -54 -35 -65 -45 -11 -10 -39 -31
-62 -46 -60 -41 -157 -146 -181 -195 -18 -38 -17 -54 2 -34 4 4 11 7 15 7 4 0
71 37 148 83 143 85 259 133 426 177 116 31 258 55 322 55 87 0 91 7 76 146
-7 66 -16 129 -19 141 l-7 22 -55 -20z"/>
<path d="M2843 1029 c-44 -16 -80 -69 -85 -124 -8 -97 90 -157 182 -112 65 32
86 98 52 166 -29 59 -96 90 -149 70z"/>
<path d="M2075 957 c-43 -62 -12 -71 259 -75 208 -4 231 -3 242 13 9 13 10 23
2 41 -14 30 -38 33 -291 38 -192 4 -198 3 -212 -17z"/>
<path d="M3213 944 c-31 -47 11 -75 104 -69 32 2 125 7 207 10 82 3 153 8 157
11 5 3 9 16 9 29 0 34 -18 37 -257 39 -199 1 -206 1 -220 -20z"/>
</g>
</svg>
